<mxfile host="app.diagrams.net" modified="2023-11-11T03:37:37.608Z" agent="Mozilla/5.0 (Macintosh; Intel Mac OS X 10_15_7) AppleWebKit/605.1.15 (KHTML, like Gecko) Version/17.1 Safari/605.1.15" etag="0OTm549WHKTULnSHds7-" version="22.1.0" type="device">
  <diagram name="Page-1" id="NnJHsPxq7P07Nw5eCB16">
    <mxGraphModel dx="1026" dy="691" grid="1" gridSize="10" guides="1" tooltips="1" connect="1" arrows="1" fold="1" page="1" pageScale="1" pageWidth="850" pageHeight="1100" math="0" shadow="0">
      <root>
        <mxCell id="0" />
        <mxCell id="1" parent="0" />
        <mxCell id="maihAeDizmU0Ly6PPmom-8" style="edgeStyle=orthogonalEdgeStyle;rounded=0;orthogonalLoop=1;jettySize=auto;html=1;" edge="1" parent="1" source="maihAeDizmU0Ly6PPmom-1" target="maihAeDizmU0Ly6PPmom-2">
          <mxGeometry relative="1" as="geometry" />
        </mxCell>
        <mxCell id="maihAeDizmU0Ly6PPmom-23" style="edgeStyle=orthogonalEdgeStyle;rounded=0;orthogonalLoop=1;jettySize=auto;html=1;entryX=0;entryY=0.5;entryDx=0;entryDy=0;" edge="1" parent="1" source="maihAeDizmU0Ly6PPmom-1" target="maihAeDizmU0Ly6PPmom-22">
          <mxGeometry relative="1" as="geometry" />
        </mxCell>
        <mxCell id="maihAeDizmU0Ly6PPmom-1" value="Start" style="strokeWidth=2;html=1;shape=mxgraph.flowchart.start_2;whiteSpace=wrap;" vertex="1" parent="1">
          <mxGeometry x="80" y="480" width="40" height="40" as="geometry" />
        </mxCell>
        <mxCell id="maihAeDizmU0Ly6PPmom-2" value="Input Text" style="rounded=1;whiteSpace=wrap;html=1;absoluteArcSize=1;arcSize=14;strokeWidth=2;" vertex="1" parent="1">
          <mxGeometry x="200" y="480" width="80" height="40" as="geometry" />
        </mxCell>
        <mxCell id="maihAeDizmU0Ly6PPmom-10" style="edgeStyle=orthogonalEdgeStyle;rounded=0;orthogonalLoop=1;jettySize=auto;html=1;entryX=0.5;entryY=0;entryDx=0;entryDy=0;" edge="1" parent="1" source="maihAeDizmU0Ly6PPmom-3" target="maihAeDizmU0Ly6PPmom-4">
          <mxGeometry relative="1" as="geometry" />
        </mxCell>
        <mxCell id="maihAeDizmU0Ly6PPmom-11" value="Yes" style="edgeLabel;html=1;align=center;verticalAlign=middle;resizable=0;points=[];" vertex="1" connectable="0" parent="maihAeDizmU0Ly6PPmom-10">
          <mxGeometry x="-0.24" y="5" relative="1" as="geometry">
            <mxPoint as="offset" />
          </mxGeometry>
        </mxCell>
        <mxCell id="maihAeDizmU0Ly6PPmom-13" style="edgeStyle=orthogonalEdgeStyle;rounded=0;orthogonalLoop=1;jettySize=auto;html=1;entryX=0.5;entryY=1;entryDx=0;entryDy=0;" edge="1" parent="1" source="maihAeDizmU0Ly6PPmom-3" target="maihAeDizmU0Ly6PPmom-12">
          <mxGeometry relative="1" as="geometry" />
        </mxCell>
        <mxCell id="maihAeDizmU0Ly6PPmom-14" value="No" style="edgeLabel;html=1;align=center;verticalAlign=middle;resizable=0;points=[];" vertex="1" connectable="0" parent="maihAeDizmU0Ly6PPmom-13">
          <mxGeometry x="-0.4625" y="1" relative="1" as="geometry">
            <mxPoint as="offset" />
          </mxGeometry>
        </mxCell>
        <mxCell id="maihAeDizmU0Ly6PPmom-3" value="Is Sentence?" style="strokeWidth=2;html=1;shape=mxgraph.flowchart.decision;whiteSpace=wrap;" vertex="1" parent="1">
          <mxGeometry x="360" y="450" width="100" height="100" as="geometry" />
        </mxCell>
        <mxCell id="maihAeDizmU0Ly6PPmom-4" value="Parse Sentence" style="rounded=1;whiteSpace=wrap;html=1;absoluteArcSize=1;arcSize=14;strokeWidth=2;" vertex="1" parent="1">
          <mxGeometry x="370" y="600" width="80" height="40" as="geometry" />
        </mxCell>
        <mxCell id="maihAeDizmU0Ly6PPmom-18" style="edgeStyle=orthogonalEdgeStyle;rounded=0;orthogonalLoop=1;jettySize=auto;html=1;entryX=0;entryY=0.5;entryDx=0;entryDy=0;" edge="1" parent="1" source="maihAeDizmU0Ly6PPmom-5" target="maihAeDizmU0Ly6PPmom-7">
          <mxGeometry relative="1" as="geometry">
            <Array as="points">
              <mxPoint x="580" y="700" />
            </Array>
          </mxGeometry>
        </mxCell>
        <mxCell id="maihAeDizmU0Ly6PPmom-19" value="Statement" style="edgeLabel;html=1;align=center;verticalAlign=middle;resizable=0;points=[];" vertex="1" connectable="0" parent="maihAeDizmU0Ly6PPmom-18">
          <mxGeometry x="-0.1778" y="1" relative="1" as="geometry">
            <mxPoint as="offset" />
          </mxGeometry>
        </mxCell>
        <mxCell id="maihAeDizmU0Ly6PPmom-20" style="edgeStyle=orthogonalEdgeStyle;rounded=0;orthogonalLoop=1;jettySize=auto;html=1;entryX=0;entryY=0.5;entryDx=0;entryDy=0;" edge="1" parent="1" source="maihAeDizmU0Ly6PPmom-5" target="maihAeDizmU0Ly6PPmom-6">
          <mxGeometry relative="1" as="geometry">
            <Array as="points">
              <mxPoint x="580" y="540" />
            </Array>
          </mxGeometry>
        </mxCell>
        <mxCell id="maihAeDizmU0Ly6PPmom-21" value="Query" style="edgeLabel;html=1;align=center;verticalAlign=middle;resizable=0;points=[];" vertex="1" connectable="0" parent="maihAeDizmU0Ly6PPmom-20">
          <mxGeometry x="0.2667" y="-1" relative="1" as="geometry">
            <mxPoint as="offset" />
          </mxGeometry>
        </mxCell>
        <mxCell id="maihAeDizmU0Ly6PPmom-5" value="Statement or Query?" style="strokeWidth=2;html=1;shape=mxgraph.flowchart.decision;whiteSpace=wrap;" vertex="1" parent="1">
          <mxGeometry x="530" y="570" width="100" height="100" as="geometry" />
        </mxCell>
        <mxCell id="maihAeDizmU0Ly6PPmom-6" value="Build Prolog Query" style="rounded=1;whiteSpace=wrap;html=1;absoluteArcSize=1;arcSize=14;strokeWidth=2;" vertex="1" parent="1">
          <mxGeometry x="640" y="520" width="80" height="40" as="geometry" />
        </mxCell>
        <mxCell id="maihAeDizmU0Ly6PPmom-7" value="Build Prolog Statement" style="rounded=1;whiteSpace=wrap;html=1;absoluteArcSize=1;arcSize=14;strokeWidth=2;" vertex="1" parent="1">
          <mxGeometry x="640" y="680" width="80" height="40" as="geometry" />
        </mxCell>
        <mxCell id="maihAeDizmU0Ly6PPmom-9" style="edgeStyle=orthogonalEdgeStyle;rounded=0;orthogonalLoop=1;jettySize=auto;html=1;entryX=0;entryY=0.5;entryDx=0;entryDy=0;entryPerimeter=0;" edge="1" parent="1" source="maihAeDizmU0Ly6PPmom-2" target="maihAeDizmU0Ly6PPmom-3">
          <mxGeometry relative="1" as="geometry" />
        </mxCell>
        <mxCell id="maihAeDizmU0Ly6PPmom-12" value="Return" style="rounded=1;whiteSpace=wrap;html=1;absoluteArcSize=1;arcSize=14;strokeWidth=2;" vertex="1" parent="1">
          <mxGeometry x="520" y="400" width="80" height="40" as="geometry" />
        </mxCell>
        <mxCell id="maihAeDizmU0Ly6PPmom-15" style="edgeStyle=orthogonalEdgeStyle;rounded=0;orthogonalLoop=1;jettySize=auto;html=1;entryX=0;entryY=0.5;entryDx=0;entryDy=0;entryPerimeter=0;" edge="1" parent="1" source="maihAeDizmU0Ly6PPmom-4" target="maihAeDizmU0Ly6PPmom-5">
          <mxGeometry relative="1" as="geometry" />
        </mxCell>
        <mxCell id="maihAeDizmU0Ly6PPmom-22" value="Initiate Prolog Knowledge Base" style="rounded=1;whiteSpace=wrap;html=1;absoluteArcSize=1;arcSize=14;strokeWidth=2;" vertex="1" parent="1">
          <mxGeometry x="200" y="760" width="120" height="40" as="geometry" />
        </mxCell>
        <mxCell id="maihAeDizmU0Ly6PPmom-24" value="Prolog KB" style="strokeWidth=2;html=1;shape=mxgraph.flowchart.database;whiteSpace=wrap;" vertex="1" parent="1">
          <mxGeometry x="440" y="800" width="80" height="80" as="geometry" />
        </mxCell>
      </root>
    </mxGraphModel>
  </diagram>
</mxfile>
